<svg width="13" height="13" viewBox="0 0 13 13" fill="none" xmlns="http://www.w3.org/2000/svg">
<path d="M11.7567 9.16741C11.9442 9.35491 12.0379 9.58259 12.0379 9.85045C12.0379 10.1183 11.9442 10.346 11.7567 10.5335L10.3906 11.8996C10.2031 12.0871 9.97545 12.1808 9.70759 12.1808C9.43973 12.1808 9.21205 12.0871 9.02455 11.8996L6.07143 8.94643L3.1183 11.8996C2.9308 12.0871 2.70313 12.1808 2.43527 12.1808C2.16741 12.1808 1.93973 12.0871 1.75223 11.8996L0.386161 10.5335C0.198661 10.346 0.104911 10.1183 0.104911 9.85045C0.104911 9.58259 0.198661 9.35491 0.386161 9.16741L3.33929 6.21429L0.386161 3.26116C0.198661 3.07366 0.104911 2.84598 0.104911 2.57812C0.104911 2.31027 0.198661 2.08259 0.386161 1.89509L1.75223 0.529017C1.93973 0.341517 2.16741 0.247767 2.43527 0.247767C2.70313 0.247767 2.9308 0.341517 3.1183 0.529017L6.07143 3.48214L9.02455 0.529017C9.21205 0.341517 9.43973 0.247767 9.70759 0.247767C9.97545 0.247767 10.2031 0.341517 10.3906 0.529017L11.7567 1.89509C11.9442 2.08259 12.0379 2.31027 12.0379 2.57812C12.0379 2.84598 11.9442 3.07366 11.7567 3.26116L8.80357 6.21429L11.7567 9.16741Z" fill="white"/>
</svg>
