<svg width="14" height="14" viewBox="0 0 14 14" fill="none" xmlns="http://www.w3.org/2000/svg">
<path fill-rule="evenodd" clip-rule="evenodd" d="M12.3596 6.99999C10.2383 11.2933 3.95763 11.2933 1.83635 6.99999C3.95763 2.70666 10.2383 2.70666 12.3596 6.99999ZM0.706225 6.77256C3.1433 1.28914 11.0526 1.28914 13.4897 6.77256C13.554 6.91735 13.554 7.08264 13.4897 7.22743C11.0526 12.7109 3.1433 12.7109 0.706225 7.22743C0.64187 7.08264 0.641871 6.91735 0.706225 6.77256Z" fill="white"/>
<path fill-rule="evenodd" clip-rule="evenodd" d="M7.09788 8.4C7.87108 8.4 8.49788 7.7732 8.49788 7C8.49788 6.2268 7.87108 5.6 7.09788 5.6C6.32468 5.6 5.69788 6.2268 5.69788 7C5.69788 7.7732 6.32468 8.4 7.09788 8.4ZM7.09788 9.52C8.48964 9.52 9.61788 8.39176 9.61788 7C9.61788 5.60825 8.48964 4.48 7.09788 4.48C5.70612 4.48 4.57788 5.60825 4.57788 7C4.57788 8.39176 5.70612 9.52 7.09788 9.52Z" fill="white"/>
</svg>
