<svg width="30" height="30" viewBox="0 0 30 30" fill="none" xmlns="http://www.w3.org/2000/svg">
<path fill-rule="evenodd" clip-rule="evenodd" d="M26.4848 15C21.9392 24.2 8.48063 24.2 3.93503 15C8.48063 5.8 21.9392 5.8 26.4848 15ZM1.51334 14.5126C6.73564 2.76246 23.6842 2.76245 28.9065 14.5126C29.0444 14.8229 29.0444 15.1771 28.9065 15.4874C23.6842 27.2375 6.73564 27.2375 1.51334 15.4874C1.37544 15.1771 1.37544 14.8229 1.51334 14.5126Z" fill="#2D81A6"/>
<path fill-rule="evenodd" clip-rule="evenodd" d="M15.2101 18C16.8669 18 18.2101 16.6568 18.2101 15C18.2101 13.3431 16.8669 12 15.2101 12C13.5532 12 12.2101 13.3431 12.2101 15C12.2101 16.6568 13.5532 18 15.2101 18ZM15.2101 20.4C18.1924 20.4 20.6101 17.9823 20.6101 15C20.6101 12.0177 18.1924 9.59999 15.2101 9.59999C12.2277 9.59999 9.81006 12.0177 9.81006 15C9.81006 17.9823 12.2277 20.4 15.2101 20.4Z" fill="#2D81A6"/>
</svg>
