<svg width="24" height="24" viewBox="0 0 24 24" fill="none" xmlns="http://www.w3.org/2000/svg">
<path fill-rule="evenodd" clip-rule="evenodd" d="M2.25 12C2.25 6.61406 6.61406 2.25 12 2.25C17.3859 2.25 21.75 6.61406 21.75 12C21.75 17.3859 17.3859 21.75 12 21.75C6.61406 21.75 2.25 17.3859 2.25 12ZM3.06093 12C3.06093 16.9312 7.07343 20.9391 12 20.9391C16.9266 20.9391 20.9391 16.9266 20.9391 12C20.9391 7.06875 16.9266 3.06094 12 3.06094C7.06875 3.06094 3.06093 7.07344 3.06093 12ZM12.1687 6.84375C10.1437 6.84375 9.01406 7.79531 9 9.75938H9.88125C9.85313 8.33438 10.6078 7.57969 12.1266 7.57969C13.2141 7.57969 14.1234 8.33906 14.1234 9.44531C14.1234 10.1625 13.7344 10.7438 13.2141 11.2312C12.1547 12.2063 11.8547 12.9188 11.8031 14.2547H12.6938L12.699 14.1297C12.7447 13.028 12.7551 12.7781 13.7859 11.7563C14.4984 11.0906 15 10.4297 15 9.40313C15 7.8 13.7156 6.84375 12.1687 6.84375ZM11.4047 16.3641C11.4047 15.9281 11.7609 15.5766 12.2016 15.5766C12.6422 15.5766 12.9984 15.9281 12.9984 16.3641C12.9984 16.8047 12.6422 17.1562 12.2016 17.1562C11.7609 17.1562 11.4047 16.8 11.4047 16.3641Z" fill="white"/>
<path d="M9 9.75938L8.75001 9.75759L8.7482 10.0094H9V9.75938ZM9.88125 9.75938V10.0094H10.1362L10.1312 9.75444L9.88125 9.75938ZM13.2141 11.2312L13.3834 11.4152L13.385 11.4137L13.2141 11.2312ZM11.8031 14.2547L11.5533 14.245L11.5433 14.5047H11.8031V14.2547ZM12.6938 14.2547V14.5047H12.9335L12.9435 14.2651L12.6938 14.2547ZM12.699 14.1297L12.9488 14.1402L12.9488 14.1401L12.699 14.1297ZM13.7859 11.7563L13.6152 11.5735L13.6099 11.5787L13.7859 11.7563ZM12 2C6.47599 2 2 6.47599 2 12H2.5C2.5 6.75213 6.75213 2.5 12 2.5V2ZM22 12C22 6.47599 17.524 2 12 2V2.5C17.2479 2.5 21.5 6.75213 21.5 12H22ZM12 22C17.524 22 22 17.524 22 12H21.5C21.5 17.2479 17.2479 21.5 12 21.5V22ZM2 12C2 17.524 6.47599 22 12 22V21.5C6.75213 21.5 2.5 17.2479 2.5 12H2ZM12 20.6891C7.21142 20.6891 3.31093 16.7931 3.31093 12H2.81093C2.81093 17.0694 6.93545 21.1891 12 21.1891V20.6891ZM20.6891 12C20.6891 16.7885 16.7885 20.6891 12 20.6891V21.1891C17.0646 21.1891 21.1891 17.0646 21.1891 12H20.6891ZM12 3.31094C16.7886 3.31094 20.6891 7.2069 20.6891 12H21.1891C21.1891 6.93059 17.0645 2.81094 12 2.81094V3.31094ZM3.31093 12C3.31093 7.21142 7.2069 3.31094 12 3.31094V2.81094C6.93059 2.81094 2.81093 6.93545 2.81093 12H3.31093ZM9.24999 9.76117C9.25668 8.82693 9.52706 8.17412 9.99748 7.75089C10.4723 7.32371 11.1913 7.09375 12.1687 7.09375V6.59375C11.1212 6.59375 10.2629 6.83957 9.66307 7.37919C9.05888 7.92276 8.75738 8.72776 8.75001 9.75759L9.24999 9.76117ZM9.88125 9.50938H9V10.0094H9.88125V9.50938ZM12.1266 7.32969C11.3294 7.32969 10.6873 7.52774 10.249 7.95644C9.80887 8.38696 9.61638 9.00867 9.6313 9.76431L10.1312 9.75444C10.118 9.08508 10.2888 8.61695 10.5986 8.31388C10.9104 8.00898 11.405 7.82969 12.1266 7.82969V7.32969ZM14.3734 9.44531C14.3734 8.17766 13.3276 7.32969 12.1266 7.32969V7.82969C13.1005 7.82969 13.8734 8.50046 13.8734 9.44531H14.3734ZM13.385 11.4137C13.9286 10.9044 14.3734 10.2617 14.3734 9.44531H13.8734C13.8734 10.0633 13.5402 10.5831 13.0431 11.0488L13.385 11.4137ZM12.0529 14.2643C12.0781 13.6124 12.1632 13.1369 12.358 12.7117C12.5527 12.2864 12.8667 11.8907 13.3834 11.4152L13.0448 11.0473C12.502 11.5468 12.1363 11.9949 11.9034 12.5035C11.6704 13.0123 11.5797 13.561 11.5533 14.245L12.0529 14.2643ZM12.6938 14.0047H11.8031V14.5047H12.6938V14.0047ZM12.4492 14.1193L12.444 14.2442L12.9435 14.2651L12.9488 14.1402L12.4492 14.1193ZM13.6099 11.5787C13.094 12.0901 12.8006 12.4384 12.6424 12.8165C12.4845 13.1941 12.4715 13.5813 12.4492 14.1193L12.9488 14.1401C12.9722 13.5764 12.9872 13.2878 13.1037 13.0095C13.2198 12.7318 13.447 12.4442 13.9619 11.9338L13.6099 11.5787ZM14.75 9.40313C14.75 10.3262 14.3093 10.9252 13.6153 11.5736L13.9566 11.9389C14.6876 11.256 15.25 10.5332 15.25 9.40313H14.75ZM12.1687 7.09375C12.8923 7.09375 13.5397 7.31741 14.0021 7.71235C14.4604 8.1039 14.75 8.67405 14.75 9.40313H15.25C15.25 8.52907 14.8974 7.81954 14.3268 7.33218C13.7603 6.84821 12.9921 6.59375 12.1687 6.59375V7.09375ZM12.2016 15.3266C11.6258 15.3266 11.1547 15.7872 11.1547 16.3641H11.6547C11.6547 16.0691 11.8961 15.8266 12.2016 15.8266V15.3266ZM13.2484 16.3641C13.2484 15.7872 12.7774 15.3266 12.2016 15.3266V15.8266C12.507 15.8266 12.7484 16.0691 12.7484 16.3641H13.2484ZM12.2016 17.4062C12.7783 17.4062 13.2484 16.9447 13.2484 16.3641H12.7484C12.7484 16.6647 12.506 16.9062 12.2016 16.9062V17.4062ZM11.1547 16.3641C11.1547 16.939 11.6238 17.4062 12.2016 17.4062V16.9062C11.898 16.9062 11.6547 16.661 11.6547 16.3641H11.1547Z" fill="white"/>
<mask id="mask0" mask-type="alpha" maskUnits="userSpaceOnUse" x="2" y="2" width="20" height="20">
<path fill-rule="evenodd" clip-rule="evenodd" d="M2.25 12C2.25 6.61406 6.61406 2.25 12 2.25C17.3859 2.25 21.75 6.61406 21.75 12C21.75 17.3859 17.3859 21.75 12 21.75C6.61406 21.75 2.25 17.3859 2.25 12ZM3.06093 12C3.06093 16.9312 7.07343 20.9391 12 20.9391C16.9266 20.9391 20.9391 16.9266 20.9391 12C20.9391 7.06875 16.9266 3.06094 12 3.06094C7.06875 3.06094 3.06093 7.07344 3.06093 12ZM12.1687 6.84375C10.1437 6.84375 9.01406 7.79531 9 9.75938H9.88125C9.85313 8.33438 10.6078 7.57969 12.1266 7.57969C13.2141 7.57969 14.1234 8.33906 14.1234 9.44531C14.1234 10.1625 13.7344 10.7438 13.2141 11.2312C12.1547 12.2063 11.8547 12.9188 11.8031 14.2547H12.6938L12.699 14.1297C12.7447 13.028 12.7551 12.7781 13.7859 11.7563C14.4984 11.0906 15 10.4297 15 9.40313C15 7.8 13.7156 6.84375 12.1687 6.84375ZM11.4047 16.3641C11.4047 15.9281 11.7609 15.5766 12.2016 15.5766C12.6422 15.5766 12.9984 15.9281 12.9984 16.3641C12.9984 16.8047 12.6422 17.1562 12.2016 17.1562C11.7609 17.1562 11.4047 16.8 11.4047 16.3641Z" fill="white"/>
<path d="M9 9.75938L8.75001 9.75759L8.7482 10.0094H9V9.75938ZM9.88125 9.75938V10.0094H10.1362L10.1312 9.75444L9.88125 9.75938ZM13.2141 11.2312L13.3834 11.4152L13.385 11.4137L13.2141 11.2312ZM11.8031 14.2547L11.5533 14.245L11.5433 14.5047H11.8031V14.2547ZM12.6938 14.2547V14.5047H12.9335L12.9435 14.2651L12.6938 14.2547ZM12.699 14.1297L12.9488 14.1402L12.9488 14.1401L12.699 14.1297ZM13.7859 11.7563L13.6152 11.5735L13.6099 11.5787L13.7859 11.7563ZM12 2C6.47599 2 2 6.47599 2 12H2.5C2.5 6.75213 6.75213 2.5 12 2.5V2ZM22 12C22 6.47599 17.524 2 12 2V2.5C17.2479 2.5 21.5 6.75213 21.5 12H22ZM12 22C17.524 22 22 17.524 22 12H21.5C21.5 17.2479 17.2479 21.5 12 21.5V22ZM2 12C2 17.524 6.47599 22 12 22V21.5C6.75213 21.5 2.5 17.2479 2.5 12H2ZM12 20.6891C7.21142 20.6891 3.31093 16.7931 3.31093 12H2.81093C2.81093 17.0694 6.93545 21.1891 12 21.1891V20.6891ZM20.6891 12C20.6891 16.7885 16.7885 20.6891 12 20.6891V21.1891C17.0646 21.1891 21.1891 17.0646 21.1891 12H20.6891ZM12 3.31094C16.7886 3.31094 20.6891 7.2069 20.6891 12H21.1891C21.1891 6.93059 17.0645 2.81094 12 2.81094V3.31094ZM3.31093 12C3.31093 7.21142 7.2069 3.31094 12 3.31094V2.81094C6.93059 2.81094 2.81093 6.93545 2.81093 12H3.31093ZM9.24999 9.76117C9.25668 8.82693 9.52706 8.17412 9.99748 7.75089C10.4723 7.32371 11.1913 7.09375 12.1687 7.09375V6.59375C11.1212 6.59375 10.2629 6.83957 9.66307 7.37919C9.05888 7.92276 8.75738 8.72776 8.75001 9.75759L9.24999 9.76117ZM9.88125 9.50938H9V10.0094H9.88125V9.50938ZM12.1266 7.32969C11.3294 7.32969 10.6873 7.52774 10.249 7.95644C9.80887 8.38696 9.61638 9.00867 9.6313 9.76431L10.1312 9.75444C10.118 9.08508 10.2888 8.61695 10.5986 8.31388C10.9104 8.00898 11.405 7.82969 12.1266 7.82969V7.32969ZM14.3734 9.44531C14.3734 8.17766 13.3276 7.32969 12.1266 7.32969V7.82969C13.1005 7.82969 13.8734 8.50046 13.8734 9.44531H14.3734ZM13.385 11.4137C13.9286 10.9044 14.3734 10.2617 14.3734 9.44531H13.8734C13.8734 10.0633 13.5402 10.5831 13.0431 11.0488L13.385 11.4137ZM12.0529 14.2643C12.0781 13.6124 12.1632 13.1369 12.358 12.7117C12.5527 12.2864 12.8667 11.8907 13.3834 11.4152L13.0448 11.0473C12.502 11.5468 12.1363 11.9949 11.9034 12.5035C11.6704 13.0123 11.5797 13.561 11.5533 14.245L12.0529 14.2643ZM12.6938 14.0047H11.8031V14.5047H12.6938V14.0047ZM12.4492 14.1193L12.444 14.2442L12.9435 14.2651L12.9488 14.1402L12.4492 14.1193ZM13.6099 11.5787C13.094 12.0901 12.8006 12.4384 12.6424 12.8165C12.4845 13.1941 12.4715 13.5813 12.4492 14.1193L12.9488 14.1401C12.9722 13.5764 12.9872 13.2878 13.1037 13.0095C13.2198 12.7318 13.447 12.4442 13.9619 11.9338L13.6099 11.5787ZM14.75 9.40313C14.75 10.3262 14.3093 10.9252 13.6153 11.5736L13.9566 11.9389C14.6876 11.256 15.25 10.5332 15.25 9.40313H14.75ZM12.1687 7.09375C12.8923 7.09375 13.5397 7.31741 14.0021 7.71235C14.4604 8.1039 14.75 8.67405 14.75 9.40313H15.25C15.25 8.52907 14.8974 7.81954 14.3268 7.33218C13.7603 6.84821 12.9921 6.59375 12.1687 6.59375V7.09375ZM12.2016 15.3266C11.6258 15.3266 11.1547 15.7872 11.1547 16.3641H11.6547C11.6547 16.0691 11.8961 15.8266 12.2016 15.8266V15.3266ZM13.2484 16.3641C13.2484 15.7872 12.7774 15.3266 12.2016 15.3266V15.8266C12.507 15.8266 12.7484 16.0691 12.7484 16.3641H13.2484ZM12.2016 17.4062C12.7783 17.4062 13.2484 16.9447 13.2484 16.3641H12.7484C12.7484 16.6647 12.506 16.9062 12.2016 16.9062V17.4062ZM11.1547 16.3641C11.1547 16.939 11.6238 17.4062 12.2016 17.4062V16.9062C11.898 16.9062 11.6547 16.661 11.6547 16.3641H11.1547Z" fill="white"/>
</mask>
<g mask="url(#mask0)">
<path fill-rule="evenodd" clip-rule="evenodd" d="M0 0H24V24H0V0Z" fill="white" stroke="white" stroke-width="0.5"/>
</g>
</svg>
