<svg width="16" height="13" viewBox="0 0 16 13" fill="none" xmlns="http://www.w3.org/2000/svg">
<path d="M15.4286 11.0714V12.3571C15.4286 12.5312 15.365 12.6819 15.2377 12.8092C15.1105 12.9364 14.9598 13 14.7857 13H0.642857C0.46875 13 0.31808 12.9364 0.190848 12.8092C0.0636161 12.6819 0 12.5312 0 12.3571V11.0714C0 10.8973 0.0636161 10.7467 0.190848 10.6194C0.31808 10.4922 0.46875 10.4286 0.642857 10.4286H14.7857C14.9598 10.4286 15.1105 10.4922 15.2377 10.6194C15.365 10.7467 15.4286 10.8973 15.4286 11.0714ZM15.4286 5.92857V7.21429C15.4286 7.38839 15.365 7.53906 15.2377 7.66629C15.1105 7.79353 14.9598 7.85714 14.7857 7.85714H0.642857C0.46875 7.85714 0.31808 7.79353 0.190848 7.66629C0.0636161 7.53906 0 7.38839 0 7.21429V5.92857C0 5.75446 0.0636161 5.60379 0.190848 5.47656C0.31808 5.34933 0.46875 5.28571 0.642857 5.28571H14.7857C14.9598 5.28571 15.1105 5.34933 15.2377 5.47656C15.365 5.60379 15.4286 5.75446 15.4286 5.92857ZM15.4286 0.785714V2.07143C15.4286 2.24554 15.365 2.3962 15.2377 2.52344C15.1105 2.65067 14.9598 2.71429 14.7857 2.71429H0.642857C0.46875 2.71429 0.31808 2.65067 0.190848 2.52344C0.0636161 2.3962 0 2.24554 0 2.07143V0.785714C0 0.611607 0.0636161 0.460937 0.190848 0.333705C0.31808 0.206473 0.46875 0.142857 0.642857 0.142857H14.7857C14.9598 0.142857 15.1105 0.206473 15.2377 0.333705C15.365 0.460937 15.4286 0.611607 15.4286 0.785714Z" fill="white"/>
</svg>
