<svg width="23" height="15" viewBox="0 0 23 15" fill="none" xmlns="http://www.w3.org/2000/svg">
<path fill-rule="evenodd" clip-rule="evenodd" d="M17.0001 0C16.4478 0 16.0001 0.447723 16.0001 1C16.0001 1.55228 16.4478 2 17.0001 2H18.8096L10.0672 9.15298L8.20708 7.29291C7.83941 6.92514 7.25103 6.90067 6.85406 7.2366L0.354057 12.7366C-0.0675735 13.0934 -0.120064 13.7243 0.236626 14.1459C0.593315 14.5676 1.22442 14.6201 1.64605 14.2634L7.44366 9.35773L9.29302 11.2071C9.6563 11.5704 10.2356 11.5993 10.6334 11.274L20.5001 3.2012V5.5C20.5001 6.05228 20.9478 6.5 21.5001 6.5C22.0523 6.5 22.5001 6.05228 22.5001 5.5V1C22.5001 0.447723 22.0523 0 21.5001 0H17.0001Z" fill="#2D81A6"/>
</svg>
